<?xml version="1.0" encoding="utf-8"?>
<!-- Generator: Adobe Illustrator 24.0.0, SVG Export Plug-In . SVG Version: 6.00 Build 0)  -->
<svg version="1.1" id="Layer_1" xmlns="http://www.w3.org/2000/svg" xmlns:xlink="http://www.w3.org/1999/xlink" x="0px" y="0px"
	 viewBox="0 0 45 30" style="enable-background:new 0 0 45 30;" xml:space="preserve">
<style type="text/css">
	.st0{fill:#B81F3F;}
	.st1{fill:#F80C51;}
</style>
<g>
	<path class="st0" d="M35.5,15.1c-0.5,0-0.9,0.4-1.3,0.7l-4.6,5.6c2.7,3.3,5.6,6.3,7.4,6.3l-0.6-10.9C36.4,15.9,36,15.1,35.5,15.1z"
		/>
	<path class="st0" d="M9.5,15.1c-0.5,0-0.9,0.7-0.9,1.7L8,27.8c1.8,0,4.8-3,7.5-6.3l-4.7-5.8C10.3,15.4,10,15.1,9.5,15.1z"/>
</g>
<g>
	<path class="st1" d="M42.9,8c0-2.2-0.8-5.3-3.7-5.3c-2.2,0-5.8,3.4-9.1,6.9c-2,2.1-3.8,4.3-5.1,5.9c-1.1,1.4-1.8,2.2-1.8,2.2
		s-0.4,0.6-0.8,0.6c-0.4,0-0.8-0.6-0.8-0.6s-0.7-0.9-1.8-2.2c-1.3-1.6-3.1-3.8-5.1-5.9C11.6,6,8,2.7,5.8,2.6C2.9,2.6,2.1,5.8,2.1,8
		L1.5,27.8H8l0.6-10.9c0-1,0.4-1.7,0.9-1.7s0.8,0.3,1.2,0.7l4.6,5.6l4,4.9c0.7,0.9,1.8,1.4,3,1.4h0.1l0,0h0.2l0,0h0.1
		c1.2,0,2.2-0.5,3-1.4l4-4.9l4.6-5.6c0.4-0.4,0.7-0.7,1.2-0.7s0.9,0.7,0.9,1.7L37,27.8h6.5L42.9,8z"/>
</g>
<path class="st0" d="M21.7,12.8c0,0,0.3-0.6,0.8-0.6s0.8,0.6,0.8,0.6s0.8,1.1,1.8,2.7c1.3-1.6,3-3.8,5-5.9l-4.4-5.4
	c-0.8-1-1.9-1.5-3-1.5h-0.1l0,0h-0.2l0,0h-0.1c-1.2,0-2.2,0.5-3,1.4l-4.6,5.6c2,2.1,3.9,4.3,5.1,5.9C20.9,14,21.7,12.8,21.7,12.8z"
	/>
</svg>
